<svg id="Layer_1" data-name="Layer 1" xmlns="http://www.w3.org/2000/svg" viewBox="0 0 115.37 54.2"><defs><style>.cls-1{fill:none;stroke:#000;stroke-miterlimit:10;}</style></defs><title>Untitled-1</title><rect x="95.77" width="7.2" height="14.4" rx="3.6" ry="3.6"/><path d="M410,261.33v2.2A13.89,13.89,0,0,1,417.67,276v16a14,14,0,0,1-28,0V276a13.89,13.89,0,0,1,7.66-12.46v-2.21A15.87,15.87,0,0,0,387.67,276v16a16,16,0,0,0,32,0V276A15.88,15.88,0,0,0,410,261.33Z" transform="translate(-304.29 -253.8)"/><line class="cls-1" x1="28.11" y1="26.95" x2="1.11" y2="26.95"/><polyline class="cls-1" points="3.78 30.02 0.71 26.95 3.78 23.88"/></svg>